Normalized EMG Linear Envelopes
nRows=118
nColumns=4

endheader
time	 med_gas_r	  soleus_r	 tib_ant_r	
0	  0.002865	 -0.487894	 -0.301138	
0.0332661	  0.018938	 -0.249187	 -0.188564	
0.0665323	  0.031966	 -0.047285	 -0.093188	
0.0997984	  0.041710	  0.105788	 -0.019793	
0.133065	  0.049064	  0.210011	  0.032309	
0.166331	  0.054940	  0.272732	  0.066085	
0.199597	  0.059824	  0.303733	  0.085247	
0.232863	  0.063825	  0.312015	  0.093570	
0.266129	  0.067065	  0.305824	  0.094686	
0.299395	  0.070274	  0.292807	  0.091442	
0.332661	  0.074223	  0.278900	  0.085976	
0.365927	  0.078878	  0.267082	  0.079863	
0.399194	  0.083314	  0.258289	  0.074166	
0.43246	  0.086400	  0.252735	  0.069743	
0.465726	  0.087828	  0.250108	  0.067059	
0.498992	  0.087544	  0.249634	  0.066074	
0.532258	  0.085262	  0.250396	  0.066356	
0.565524	  0.081584	  0.252483	  0.067328	
0.59879	  0.077396	  0.256576	  0.068980	
0.632056	  0.073057	  0.263885	  0.071024	
0.665323	  0.068436	  0.273951	  0.072775	
0.698589	  0.063838	  0.283817	  0.073658	
0.731855	  0.060073	  0.288969	  0.073549	
0.765121	  0.057572	  0.288198	  0.072894	
0.798387	  0.056296	  0.283815	  0.071855	
0.831653	  0.056038	  0.277849	  0.070539	
0.864919	  0.056235	  0.270525	  0.069081	
0.898185	  0.056063	  0.263749	  0.067614	
0.931452	  0.055764	  0.259934	  0.066483	
0.964718	  0.055814	  0.259956	  0.065826	
0.997984	  0.056355	  0.263593	  0.065558	
1.03125	  0.057250	  0.269864	  0.065563	
1.06452	  0.058222	  0.277832	  0.065667	
1.09778	  0.058669	  0.286607	  0.065591	
1.13105	  0.058603	  0.295266	  0.065225	
1.16431	  0.058797	  0.302595	  0.064732	
1.19758	  0.059797	  0.307882	  0.064023	
1.23085	  0.061539	  0.310957	  0.063210	
1.26411	  0.063473	  0.312586	  0.062587	
1.29738	  0.064758	  0.312103	  0.062197	
1.33065	  0.064593	  0.308153	  0.061818	
1.36391	  0.063891	  0.300644	  0.061225	
1.39718	  0.063723	  0.290683	  0.060769	
1.43044	  0.064403	  0.279893	  0.060665	
1.46371	  0.065742	  0.269885	  0.060691	
1.49698	  0.066943	  0.261140	  0.060535	
1.53024	  0.066924	  0.253242	  0.059805	
1.56351	  0.065629	  0.247059	  0.058513	
1.59677	  0.063743	  0.244758	  0.057134	
1.63004	  0.061925	  0.246620	  0.056332	
1.66331	  0.060482	  0.250882	  0.056417	
1.69657	  0.059376	  0.255783	  0.057191	
1.72984	  0.058109	  0.260687	  0.058415	
1.7631	  0.056603	  0.265011	  0.059911	
1.79637	  0.055393	  0.268096	  0.061459	
1.82964	  0.055021	  0.269539	  0.062694	
1.8629	  0.055544	  0.269489	  0.063166	
1.89617	  0.056560	  0.268406	  0.063143	
1.92944	  0.057330	  0.267452	  0.063100	
1.9627	  0.057106	  0.266749	  0.063137	
1.99597	  0.055998	  0.265682	  0.063191	
2.02923	  0.054780	  0.263685	  0.063240	
2.0625	  0.054105	  0.259947	  0.063198	
2.09577	  0.054263	  0.255313	  0.062926	
2.12903	  0.055102	  0.251528	  0.062349	
2.1623	  0.056066	  0.249067	  0.061375	
2.19556	  0.056387	  0.247631	  0.060119	
2.22883	  0.056083	  0.246836	  0.058986	
2.2621	  0.055804	  0.245605	  0.058147	
2.29536	  0.056197	  0.242654	  0.057663	
2.32863	  0.057542	  0.238794	  0.057419	
2.3619	  0.059453	  0.235350	  0.057338	
2.39516	  0.061034	  0.232921	  0.057540	
2.42843	  0.061916	  0.231852	  0.058064	
2.46169	  0.062525	  0.231959	  0.058638	
2.49496	  0.062766	  0.232521	  0.059072	
2.52823	  0.062451	  0.233433	  0.059566	
2.56149	  0.061822	  0.234459	  0.060415	
2.59476	  0.060902	  0.235167	  0.061564	
2.62802	  0.059524	  0.236782	  0.062830	
2.66129	  0.058283	  0.240353	  0.064157	
2.69456	  0.057503	  0.245514	  0.065499	
2.72782	  0.056941	  0.251714	  0.066867	
2.76109	  0.056055	  0.259023	  0.068252	
2.79435	  0.054878	  0.267787	  0.069489	
2.82762	  0.053626	  0.276613	  0.070347	
2.86089	  0.052467	  0.283346	  0.071034	
2.89415	  0.051896	  0.286427	  0.071629	
2.92742	  0.052258	  0.286660	  0.071901	
2.96069	  0.053552	  0.285575	  0.071512	
2.99395	  0.055234	  0.284237	  0.070388	
3.02722	  0.056333	  0.282718	  0.068654	
3.06048	  0.056616	  0.282098	  0.066445	
3.09375	  0.056487	  0.283748	  0.063937	
3.12702	  0.056546	  0.287169	  0.061371	
3.16028	  0.057216	  0.291305	  0.059373	
3.19355	  0.058524	  0.294290	  0.058511	
3.22681	  0.059922	  0.295400	  0.058825	
3.26008	  0.060428	  0.294810	  0.060111	
3.29335	  0.059438	  0.292904	  0.061879	
3.32661	  0.057611	  0.290596	  0.063715	
3.35988	  0.056105	  0.288665	  0.065480	
3.39315	  0.055385	  0.286956	  0.067059	
3.42641	  0.055406	  0.284534	  0.068156	
3.45968	  0.055636	  0.280925	  0.068276	
3.49294	  0.055339	  0.277573	  0.067553	
3.52621	  0.054965	  0.276481	  0.066359	
3.55948	  0.055384	  0.279110	  0.064982	
3.59274	  0.056944	  0.284605	  0.063503	
3.62601	  0.059324	  0.290321	  0.061659	
3.65927	  0.061629	  0.294231	  0.059428	
3.69254	  0.062902	  0.294667	  0.057180	
3.72581	  0.063384	  0.291226	  0.055487	
3.75907	  0.063807	  0.284855	  0.054940	
3.79234	  0.064483	  0.277832	  0.056083	
3.8256	  0.065385	  0.273025	  0.059465	
3.85887	  0.066141	  0.271009	  0.065633	
3.89214	  0.066008	  0.270549	  0.075039	
